<svg width="97" height="51" viewBox="0 0 97 51" fill="none" xmlns="http://www.w3.org/2000/svg">
<path d="M81.3256 32.991L4.61774 38.1227L1.97996 11.5419C1.72186 8.94092 3.67371 6.64498 6.28244 6.48128L85.2151 1.52649L86.8268 26.7195C87.0346 29.9687 84.5743 32.7737 81.3256 32.991Z" fill="url(#paint0_linear_193_5263)"/>
<path d="M86.8272 26.7194L85.2155 1.5265L83.6331 1.62583L82.762 23.264C82.9699 26.5133 80.5095 29.3183 77.2608 29.5356L4.41992 36.1242L4.61821 38.1228L81.326 32.991C84.5747 32.7737 87.035 29.9687 86.8272 26.7194Z" fill="#BA1A1A"/>
<g opacity="0.51">
<path d="M5.908 14.8431C5.6499 12.2421 7.60175 9.94622 10.2104 9.78251L85.4716 5.53725L85.215 1.52649L6.28238 6.4812C3.67372 6.64498 1.7218 8.94085 1.97997 11.5418L4.61775 38.1227L7.83433 37.9075L5.908 14.8431Z" fill="white"/>
</g>
<path d="M4.61729 39.2567C4.03916 39.2567 3.54782 38.8182 3.48986 38.2348L0.852077 11.6541C0.696705 10.0868 1.17285 8.56276 2.19283 7.363C3.21296 6.16324 4.64037 5.44803 6.212 5.34944L85.1446 0.394651C85.7646 0.353872 86.3072 0.829347 86.3473 1.45415L88.3352 32.5254C88.3752 33.1491 87.9029 33.6875 87.2792 33.7293L4.69405 39.2542C4.66839 39.256 4.6428 39.2567 4.61729 39.2567ZM84.1562 2.72914L6.35418 7.61306C5.4027 7.67272 4.53846 8.10573 3.92088 8.832C3.3033 9.5585 3.01497 10.4812 3.10907 11.4299L5.6383 36.9179L85.9995 31.5417L84.1562 2.72914Z" fill="#1E1E24"/>
<path d="M85.2154 1.52631L94.7133 16.4074C95.4016 17.4858 95.7673 18.7384 95.7673 20.0178V38.6188C95.7673 41.9721 93.1654 44.7501 89.8193 44.9693L17.3043 49.7201C15.0726 49.8664 12.9147 48.8912 11.5498 47.1195L4.61816 38.1226L79.9124 33.0854C83.9424 32.8158 86.9946 29.3363 86.7367 25.3054L85.2154 1.52631Z" fill="url(#paint1_linear_193_5263)"/>
<path d="M16.8623 50.8688C14.4369 50.8688 12.1448 49.7497 10.6517 47.8118L3.72009 38.8149C3.46465 38.4832 3.4126 38.0381 3.58463 37.6565C3.75682 37.2748 4.12508 37.0192 4.54275 36.9913L79.9993 31.9433C83.3079 31.722 85.8274 28.8498 85.6156 25.5405L84.084 1.59887C84.051 1.08261 84.3716 0.609347 84.8633 0.448592C85.355 0.287985 85.8935 0.480376 86.1717 0.916332L95.6697 15.7975C96.4758 17.0604 96.9018 18.5197 96.9018 20.0181V38.6191C96.9018 42.5573 93.8235 45.8439 89.8937 46.1012L17.379 50.852C17.2063 50.8633 17.0338 50.8688 16.8623 50.8688ZM6.81271 39.1125L12.4484 46.4276C13.5849 47.9025 15.3728 48.712 17.2304 48.5887L89.7454 43.8379C92.4866 43.6585 94.6336 41.366 94.6336 38.6192V20.0181C94.6336 18.953 94.3308 17.9157 93.7578 17.018L86.6285 5.8479L87.879 25.3958C88.1704 29.9493 84.7035 33.9017 80.1507 34.2063L6.81271 39.1125Z" fill="#1E1E24"/>
<defs>
<linearGradient id="paint0_linear_193_5263" x1="44.398" y1="1.52649" x2="44.398" y2="38.1227" gradientUnits="userSpaceOnUse">
<stop stop-color="#FF873E"/>
<stop offset="1" stop-color="#FF5344"/>
</linearGradient>
<linearGradient id="paint1_linear_193_5263" x1="50.1927" y1="1.52631" x2="50.1927" y2="49.7345" gradientUnits="userSpaceOnUse">
<stop stop-color="#FF873E"/>
<stop offset="1" stop-color="#FF5344"/>
</linearGradient>
</defs>
</svg>
