<svg width="97" height="99" viewBox="0 0 97 99" fill="none" xmlns="http://www.w3.org/2000/svg">
<path d="M85.9521 16.8021L87.5453 25.2091C87.9062 27.1133 87.4436 29.0813 86.2725 30.6255L75.1324 45.3131L95.0781 60.4414L95.7563 70.7348C95.8648 72.3812 95.3756 74.0114 94.3785 75.326L83.6091 89.5247C81.3223 92.5398 77.0243 93.1301 74.0092 90.8433L60.0673 80.2687C57.0523 77.9819 52.7542 78.5722 50.4674 81.5873L40.9214 94.1732C38.6345 97.1883 34.3365 97.7786 31.3214 95.4918L13.8498 82.24C12.7405 81.3986 11.9139 80.2393 11.4799 78.9164L8.79332 70.7266L21.5525 53.9044L4.66628 41.0967C2.94648 39.7922 1.9419 37.7536 1.95521 35.5951L2.00817 27.0268L15.1044 9.76018C17.3912 6.74512 21.6893 6.15478 24.7044 8.44161L44.0104 23.0847L58.3479 4.4135C60.6429 1.42469 64.9207 0.850099 67.9231 3.12736L85.9521 16.8021Z" fill="url(#paint0_linear_193_5280)"/>
<path d="M35.4449 98.0169C33.7146 98.0171 32.0398 97.4567 30.6373 96.3929L13.1656 83.1411C11.8672 82.1563 10.9125 80.8172 10.4046 79.269L7.71792 71.0792C7.60215 70.7263 7.66709 70.3391 7.8915 70.043L19.9671 54.1221L3.98196 41.9978C1.98861 40.4859 0.807802 38.0897 0.823395 35.5882L0.876205 27.0198C0.877676 26.7753 0.95829 26.538 1.10613 26.3432L14.2024 9.07657C16.8626 5.56973 21.88 4.88025 25.3872 7.54035L43.7974 21.504L57.45 3.72466C60.1154 0.253865 65.1197 -0.418111 68.606 2.22625L86.6352 15.901C86.8583 16.0702 87.0107 16.3163 87.063 16.5916L88.6561 24.9984C89.0757 27.2132 88.5351 29.5133 87.1729 31.309L76.7165 45.0954L95.761 59.54C96.0222 59.7381 96.1847 60.0397 96.2061 60.3668L96.8844 70.6604C97.0109 72.5782 96.4407 74.4779 95.2789 76.0095L84.5096 90.2081C83.221 91.9071 81.3479 93.0025 79.2355 93.2926C77.1223 93.5839 75.0237 93.0327 73.325 91.7443L59.3831 81.1697C56.8702 79.2637 53.2744 79.7574 51.368 82.2706L41.8219 94.8565C40.5333 96.5554 38.6602 97.6509 36.5478 97.941C36.1792 97.9918 35.8107 98.0169 35.4449 98.0169ZM10.0523 70.9376L12.5541 78.5638C12.9182 79.6734 13.6023 80.633 14.5328 81.3387L32.0045 94.5905C33.2218 95.5139 34.7252 95.9091 36.2401 95.6999C37.7538 95.492 39.0961 94.707 40.0196 93.4895L49.5656 80.9036C52.2258 77.3968 57.2429 76.7073 60.7503 79.3674L74.6922 89.9419C75.9099 90.8654 77.4144 91.2591 78.9277 91.0516C80.4415 90.8436 81.7838 90.0585 82.7073 88.841L93.4766 74.6424C94.3091 73.5449 94.7177 72.1836 94.6269 70.8092L93.9827 61.0306L74.448 46.2142C73.9504 45.8368 73.8528 45.1273 74.2304 44.6294L85.3705 29.9418C86.3466 28.6549 86.734 27.0066 86.4332 25.4196L84.9214 17.4404L67.2389 4.02858C64.7405 2.13372 61.1543 2.61579 59.2444 5.10245L44.9069 23.7736C44.528 24.2672 43.8214 24.3617 43.3262 23.9859L24.0202 9.34283C21.5067 7.43642 17.911 7.9304 16.0049 10.4438L3.13618 27.4103L3.08572 35.6021C3.07447 37.3947 3.92062 39.1119 5.34916 40.1954L22.2354 53.0032C22.7331 53.3806 22.8306 54.0901 22.4531 54.588L10.0523 70.9376Z" fill="#1E1E24"/>
<path d="M67.9237 3.12737L85.9528 16.802L68.2739 40.1106L95.0788 60.4414L77.8418 83.1672L51.3284 63.0574L36.2432 82.9462C33.9564 85.9613 29.6584 86.5516 26.6433 84.2648L8.79401 70.7266L27.3568 46.2526L2.00879 27.0268L15.105 9.76019C17.3919 6.74512 21.6899 6.15479 24.705 8.44161L44.0111 23.0848L58.3485 4.41351C60.6435 1.42477 64.9213 0.850181 67.9237 3.12737Z" fill="url(#paint1_linear_193_5280)"/>
<path d="M95.0779 60.4414L80.1961 74.977C78.4369 76.6954 75.6696 76.8236 73.759 75.2754L53.6487 58.9791C51.7096 57.4694 48.898 57.9146 47.5201 59.9495L30.9189 84.4674C34.756 87.6315 42.9765 75.5714 51.3275 63.0575L77.841 83.1672L95.0779 60.4414Z" fill="#DB9C42"/>
<g opacity="0.4">
<path d="M30.9198 84.4674L17.4278 72.2466C15.4165 70.4247 15.1613 67.3558 16.8441 65.2268L29.6374 49.0417C31.2704 46.9758 30.8695 43.9684 28.7524 42.4024L11.2957 29.4898C9.37964 28.0725 8.91758 25.3987 10.2468 23.4206L16.4144 14.2424C18.7012 11.2273 22.9993 10.637 26.0144 12.9238L41.241 24.4728C43.498 26.1846 46.7137 25.7527 48.4389 23.5059L59.6579 8.89573C61.9529 5.90699 66.2307 5.33233 69.233 7.60959L75.6309 12.4621C77.8314 14.1312 78.2863 17.2568 76.6529 19.4839L64.701 35.7799C63.3649 37.6017 63.737 40.1585 65.5371 41.5239L93.3987 62.6562L95.0788 60.4412L68.2739 40.1105L85.9529 16.802L67.9237 3.12737C64.9212 0.85018 60.6435 1.42477 58.3484 4.41351L44.0111 23.0848L24.705 8.44161C21.6899 6.15479 17.3919 6.74512 15.105 9.76019L2.00879 27.0268L27.3568 46.2526L8.79401 70.7266L26.6433 84.2648C28.2696 85.4984 30.268 85.8876 32.1239 85.5179C31.7518 85.1548 31.3537 84.7965 30.9198 84.4674Z" fill="white"/>
</g>
<path d="M30.7739 86.7855C29.0926 86.7856 27.399 86.2581 25.9591 85.166L8.10985 71.6277C7.61219 71.2503 7.51466 70.5408 7.89221 70.043L25.7715 46.4701L1.32455 27.928C1.08558 27.7469 0.928326 27.4779 0.887504 27.1807C0.846609 26.8836 0.925603 26.5822 1.10698 26.3433L14.2032 9.07664C16.863 5.5698 21.8803 4.87995 25.3881 7.54042L43.7981 21.504L57.4507 3.72466C60.1161 0.253865 65.1205 -0.418112 68.6067 2.22625L86.6359 15.901C86.8749 16.0822 87.0321 16.3511 87.0729 16.6483C87.1138 16.9454 87.0349 17.2468 86.8535 17.4858L69.858 39.893L95.7617 59.5402C96.2594 59.9176 96.3569 60.6271 95.9793 61.1249L78.7425 83.8509C78.5613 84.0899 78.2923 84.2472 77.9952 84.288C77.6973 84.3286 77.3967 84.2499 77.1577 84.0685L51.5453 64.6423L37.1437 83.63C35.5758 85.6972 33.1881 86.7853 30.7739 86.7855ZM10.3782 70.509L27.3263 83.3637C29.8396 85.27 33.4354 84.7764 35.3414 82.2628L50.4266 62.3739C50.804 61.8765 51.5138 61.7789 52.0114 62.1563L77.6238 81.5825L93.4934 60.6589L67.5898 41.0118C67.3508 40.8306 67.1935 40.5616 67.1527 40.2645C67.1118 39.9673 67.1908 39.666 67.3722 39.427L84.3675 17.0197L67.2395 4.02851C64.7414 2.13365 61.1549 2.61527 59.245 5.10238L44.9076 23.7736C44.5287 24.2672 43.8221 24.3617 43.3269 23.9859L24.0209 9.34283C21.5075 7.43642 17.9117 7.9304 16.0056 10.4438L3.59299 26.8092L28.0399 45.3514C28.2789 45.5325 28.4362 45.8015 28.477 46.0987C28.5179 46.3958 28.4389 46.6972 28.2575 46.9361L10.3782 70.509Z" fill="#1E1E24"/>
<defs>
<linearGradient id="paint0_linear_193_5280" x1="48.8631" y1="1.73431" x2="48.8631" y2="96.8848" gradientUnits="userSpaceOnUse">
<stop stop-color="#FFCD73"/>
<stop offset="1" stop-color="#EB9A36"/>
</linearGradient>
<linearGradient id="paint1_linear_193_5280" x1="48.5438" y1="1.73437" x2="48.5438" y2="85.6579" gradientUnits="userSpaceOnUse">
<stop stop-color="#FFCD73"/>
<stop offset="1" stop-color="#EB9A36"/>
</linearGradient>
</defs>
</svg>
