<svg width="84" height="99" viewBox="0 0 84 99" fill="none" xmlns="http://www.w3.org/2000/svg">
<path d="M67.4659 53.6568L1.01562 58.1023V42.4911C1.01562 38.1922 4.37078 34.6406 8.66269 34.3962L75.0327 30.6171V45.5669C75.0327 49.8347 71.7242 53.3719 67.4659 53.6568Z" fill="url(#paint0_linear_193_5297)"/>
<path d="M1.0164 59.1188C0.759505 59.1188 0.511013 59.0214 0.322126 58.8447C0.116651 58.6524 0 58.3838 0 58.1024V42.4913C0 37.6579 3.78004 33.6566 8.60576 33.3816L74.9759 29.6026C75.2547 29.5868 75.5284 29.6864 75.7316 29.8785C75.9349 30.0704 76.05 30.3377 76.05 30.6173V45.5671C76.05 50.3528 72.3097 54.3517 67.5346 54.6711L1.08428 59.1165C1.06155 59.118 1.03887 59.1188 1.0164 59.1188ZM74.0172 31.6933L8.72123 35.4111C4.97079 35.6249 2.03281 38.7347 2.03281 42.4913V57.0158L67.3989 52.643C71.1101 52.3947 74.0172 49.2866 74.0172 45.5671V31.6933Z" fill="#1E1E24"/>
<path d="M75.0327 30.6173L80.9079 37.8911C82.0729 39.3334 82.7084 41.1316 82.7084 42.9857V56.2955C82.7084 60.5677 79.3935 64.1069 75.1304 64.3862L13.4997 68.4239C10.8032 68.6005 8.19603 67.4223 6.54681 65.2817L1.01562 58.1025L67.4659 53.657C71.7243 53.3721 75.0327 49.8349 75.0327 45.5671V30.6173Z" fill="url(#paint1_linear_193_5297)"/>
<path d="M12.9659 69.4576C10.1447 69.4576 7.47916 68.1558 5.74251 65.9019L0.211271 58.7226C-0.0176663 58.4253 -0.0643366 58.0263 0.0898524 57.6844C0.244174 57.3424 0.57424 57.1132 0.948576 57.0882L67.3989 52.6428C71.1101 52.3945 74.0172 49.2864 74.0172 45.5669V30.6172C74.0172 30.1864 74.2888 29.8024 74.6949 29.6589C75.1005 29.5155 75.5533 29.6433 75.8243 29.9786L81.6993 37.2525C83.0059 38.8699 83.7255 40.906 83.7255 42.9856V56.2953C83.7255 61.0875 79.9797 65.0869 75.1978 65.4003L13.5668 69.4379C13.3661 69.451 13.1653 69.4576 12.9659 69.4576ZM2.98297 58.9893L7.35273 64.6612C8.79774 66.5369 11.0701 67.5632 13.4339 67.4095L75.0648 63.3719C78.7814 63.1284 81.6927 60.02 81.6927 56.2954V42.9856C81.6927 41.3694 81.1334 39.7869 80.118 38.5298L76.0499 33.4932V45.567C76.0499 50.3526 72.3096 54.3516 67.5345 54.671L2.98297 58.9893Z" fill="#1E1E24"/>
<path d="M48.3967 12.3681C48.3967 18.104 43.745 22.7523 38.0091 22.7523C36.6099 22.7523 35.2784 22.4779 34.0621 21.9731C30.2845 20.4214 27.625 16.7047 27.625 12.3681C27.625 6.63227 32.2733 1.98056 38.0091 1.98056C41.6512 1.98056 44.8562 3.85753 46.7094 6.69327C47.7767 8.32623 48.3967 10.2743 48.3967 12.3681Z" fill="url(#paint2_linear_193_5297)"/>
<path d="M46.7095 6.69315C46.6089 6.53929 46.5026 6.38959 46.3942 6.24149C46.7494 7.28856 46.9481 8.4074 46.9481 9.5743C46.9481 15.3102 42.2964 19.9584 36.5605 19.9584C35.1613 19.9584 33.8298 19.684 32.6136 19.1792C30.8267 18.4452 29.2953 17.2227 28.1719 15.6834C29.1334 18.5358 31.2952 20.8363 34.0622 21.9729C35.2784 22.4777 36.6099 22.7521 38.0092 22.7521C43.745 22.7521 48.3967 18.1038 48.3967 12.3679C48.3967 10.2742 47.7767 8.32611 46.7095 6.69315Z" fill="#31BA68"/>
<path d="M38.0081 23.7686C36.5004 23.7686 35.0413 23.4803 33.6714 22.9116C29.3816 21.1496 26.6074 17.0104 26.6074 12.3681C26.6074 6.08004 31.7218 0.964172 38.0081 0.964172C41.8718 0.964172 45.4423 2.89804 47.5591 6.13727C48.7712 7.99157 49.4119 10.1463 49.4119 12.3681C49.4119 18.6544 44.2962 23.7686 38.0081 23.7686ZM38.0081 2.99692C32.8426 2.99692 28.6402 7.2008 28.6402 12.3681C28.6402 16.1828 30.9197 19.5838 34.4473 21.0328C35.5723 21.4998 36.7692 21.7359 38.0081 21.7359C43.1752 21.7359 47.3791 17.5335 47.3791 12.3681C47.3791 10.5423 46.8529 8.77223 45.8575 7.24944C44.1175 4.58652 41.1831 2.99692 38.0081 2.99692Z" fill="#1E1E24"/>
<path d="M53.1459 16.2982C53.1459 22.0341 48.4942 26.6857 42.7584 26.6857C39.1164 26.6857 35.9113 24.8088 34.0615 21.9731C35.2778 22.4779 36.6093 22.7523 38.0085 22.7523C43.7443 22.7523 48.3961 18.104 48.3961 12.3682C48.3961 10.2743 47.7761 8.32626 46.7089 6.6933C50.4865 8.24504 53.1459 11.9616 53.1459 16.2982Z" fill="url(#paint3_linear_193_5297)"/>
<path d="M42.7592 27.7021C38.8938 27.7021 35.3244 25.7679 33.211 22.5283C32.9675 22.155 32.9956 21.6664 33.2805 21.3235C33.5653 20.9805 34.0401 20.8634 34.4521 21.0343C35.5735 21.4999 36.7704 21.7359 38.0092 21.7359C43.1764 21.7359 47.3803 17.5335 47.3803 12.3682C47.3803 10.5424 46.854 8.77225 45.8587 7.24946C45.6151 6.87678 45.6425 6.3889 45.9261 6.04563C46.2097 5.70255 46.6836 5.58372 47.0955 5.75317C51.3889 7.51647 54.163 11.6555 54.163 16.2981C54.1631 22.5861 49.0473 27.7021 42.7592 27.7021ZM37.0472 23.729C38.6602 24.9727 40.6563 25.6693 42.7592 25.6693C47.9264 25.6693 52.1302 21.4654 52.1302 16.298C52.1302 13.5622 50.9579 11.0392 48.9936 9.29642C49.2708 10.2892 49.4131 11.3211 49.4131 12.3681C49.4131 18.6544 44.2974 23.7686 38.0093 23.7686C37.6862 23.7686 37.3654 23.7554 37.0472 23.729Z" fill="#1E1E24"/>
<g opacity="0.67">
<path d="M42.5305 5.43531C35.708 0.773819 28.1696 7.23581 29.7936 14.6142C29.9042 15.1166 30.6354 15.0746 30.706 14.5652C31.733 7.15393 35.4536 4.23954 42.1346 6.26745C42.6466 6.42283 42.9723 5.73721 42.5305 5.43531Z" fill="white"/>
</g>
<path d="M48.3967 82.7604C48.3967 88.4962 43.745 93.1445 38.0091 93.1445C36.6099 93.1445 35.2784 92.8701 34.0621 92.3653C30.2845 90.8136 27.625 87.097 27.625 82.7604C27.625 77.0245 32.2733 72.3728 38.0091 72.3728C41.6512 72.3728 44.8562 74.2498 46.7094 77.0855C47.7767 78.7185 48.3967 80.6666 48.3967 82.7604Z" fill="url(#paint4_linear_193_5297)"/>
<path d="M46.7095 77.0856C46.6089 76.9317 46.5026 76.782 46.3942 76.634C46.7494 77.681 46.9481 78.7999 46.9481 79.9668C46.9481 85.7026 42.2964 90.3509 36.5605 90.3509C35.1613 90.3509 33.8298 90.0765 32.6136 89.5717C30.8267 88.8377 29.2953 87.6152 28.1719 86.0759C29.1334 88.9283 31.2952 91.2288 34.0622 92.3654C35.2784 92.8702 36.6099 93.1446 38.0092 93.1446C43.745 93.1446 48.3967 88.4963 48.3967 82.7604C48.3967 80.6667 47.7767 78.7186 46.7095 77.0856Z" fill="#31BA68"/>
<path d="M38.0081 94.1612C36.5004 94.1612 35.0413 93.8728 33.6714 93.3041C29.3816 91.5422 26.6074 87.403 26.6074 82.7605C26.6074 76.4724 31.7218 71.3567 38.0081 71.3567C41.8718 71.3567 45.4423 73.2906 47.5591 76.5297C48.7712 78.3843 49.4119 80.5388 49.4119 82.7605C49.4119 89.0469 44.2962 94.1612 38.0081 94.1612ZM38.0081 73.3895C32.8426 73.3895 28.6402 77.5934 28.6402 82.7605C28.6402 86.5751 30.9197 89.9763 34.4473 91.4253C35.5723 91.8923 36.7692 92.1284 38.0081 92.1284C43.1752 92.1284 47.3791 87.926 47.3791 82.7605C47.3791 80.9348 46.8529 79.1648 45.8575 77.6417C44.1173 74.9791 41.183 73.3895 38.0081 73.3895Z" fill="#1E1E24"/>
<path d="M53.1459 86.6904C53.1459 92.4263 48.4942 97.0779 42.7584 97.0779C39.1164 97.0779 35.9113 95.201 34.0615 92.3653C35.2778 92.8701 36.6093 93.1445 38.0085 93.1445C43.7443 93.1445 48.3961 88.4962 48.3961 82.7604C48.3961 80.6666 47.7761 78.7185 46.7089 77.0855C50.4865 78.6372 53.1459 82.3538 53.1459 86.6904Z" fill="url(#paint5_linear_193_5297)"/>
<path d="M42.7592 98.0944C38.8938 98.0944 35.3244 96.1602 33.211 92.9206C32.9675 92.5473 32.9956 92.0588 33.2805 91.7158C33.5653 91.3729 34.0401 91.2559 34.4521 91.4267C35.5735 91.8922 36.7704 92.1282 38.0092 92.1282C43.1764 92.1282 47.3803 87.9258 47.3803 82.7603C47.3803 80.9347 46.854 79.1646 45.8587 77.6415C45.6151 77.2688 45.6425 76.781 45.9261 76.4379C46.2099 76.0948 46.6841 75.9763 47.0955 76.1454C51.3889 77.9089 54.163 82.0481 54.163 86.6905C54.1631 92.9785 49.0473 98.0944 42.7592 98.0944ZM37.0472 94.1213C38.6602 95.365 40.6563 96.0616 42.7592 96.0616C47.9264 96.0616 52.1302 91.8577 52.1302 86.6904C52.1302 83.9547 50.9579 81.4315 48.9936 79.6887C49.2708 80.6813 49.4131 81.7134 49.4131 82.7602C49.4131 89.0465 44.2974 94.1609 38.0093 94.1609C37.6862 94.161 37.3654 94.1477 37.0472 94.1213Z" fill="#1E1E24"/>
<g opacity="0.67">
<path d="M42.5305 75.8275C35.708 71.166 28.1696 77.628 29.7936 85.0064C29.9042 85.5087 30.6354 85.4668 30.706 84.9573C31.733 77.5461 35.4536 74.6317 42.1346 76.6596C42.6466 76.815 42.9723 76.1294 42.5305 75.8275Z" fill="white"/>
</g>
<defs>
<linearGradient id="paint0_linear_193_5297" x1="38.0242" y1="30.6171" x2="38.0242" y2="58.1023" gradientUnits="userSpaceOnUse">
<stop stop-color="#1DE5B1"/>
<stop offset="1" stop-color="#1BA570"/>
</linearGradient>
<linearGradient id="paint1_linear_193_5297" x1="41.862" y1="30.6173" x2="41.862" y2="68.4413" gradientUnits="userSpaceOnUse">
<stop stop-color="#1DE5B1"/>
<stop offset="1" stop-color="#1BA570"/>
</linearGradient>
<linearGradient id="paint2_linear_193_5297" x1="38.0108" y1="1.98056" x2="38.0108" y2="22.7523" gradientUnits="userSpaceOnUse">
<stop stop-color="#1DE5B1"/>
<stop offset="1" stop-color="#1BA570"/>
</linearGradient>
<linearGradient id="paint3_linear_193_5297" x1="43.6037" y1="6.6933" x2="43.6037" y2="26.6857" gradientUnits="userSpaceOnUse">
<stop stop-color="#1DE5B1"/>
<stop offset="1" stop-color="#1BA570"/>
</linearGradient>
<linearGradient id="paint4_linear_193_5297" x1="38.0108" y1="72.3728" x2="38.0108" y2="93.1445" gradientUnits="userSpaceOnUse">
<stop stop-color="#1DE5B1"/>
<stop offset="1" stop-color="#1BA570"/>
</linearGradient>
<linearGradient id="paint5_linear_193_5297" x1="43.6037" y1="77.0855" x2="43.6037" y2="97.0779" gradientUnits="userSpaceOnUse">
<stop stop-color="#1DE5B1"/>
<stop offset="1" stop-color="#1BA570"/>
</linearGradient>
</defs>
</svg>
