<svg width="97" height="91" viewBox="0 0 97 91" fill="none" xmlns="http://www.w3.org/2000/svg">
<path d="M57.3795 1.62286L63.5918 7.23425C64.6496 8.18973 65.2533 9.54859 65.2533 10.974V28.3799H88.1502L94.6342 35.8523C95.4295 36.7689 95.8674 37.9416 95.8674 39.1552V57.1403C95.8674 59.9236 93.6111 62.1799 90.8278 62.1799H72.3684C69.5852 62.1799 67.3289 64.4362 67.3289 67.2195V84.1222C67.3289 86.9055 65.0726 89.1618 62.2893 89.1618H40.6223C39.5983 89.1618 38.5986 88.8499 37.7563 88.2675L30.9568 83.5665V64.2555H10.9579C9.37027 64.2555 7.87552 63.5073 6.92394 62.2365L1.8584 55.4716V34.423C1.8584 31.6397 4.11467 29.3834 6.89797 29.3834H25.2782C28.0498 29.3834 30.3012 27.1453 30.3177 24.3738L30.4233 6.6325C30.4397 3.86098 32.6912 1.62292 35.4628 1.62292L57.3795 1.62286Z" fill="url(#paint0_linear_193_5242)"/>
<path d="M62.2887 90.1964H40.6217C39.3815 90.1964 38.1871 89.8236 37.1672 89.1183L30.3678 84.4176C30.0884 84.2243 29.9216 83.9064 29.9216 83.5666V65.2901H10.9574C9.05394 65.2901 7.23636 64.3804 6.0952 62.8567L1.02971 56.0916C0.895702 55.9126 0.823242 55.695 0.823242 55.4714V34.4229C0.823242 31.0736 3.5481 28.3487 6.89757 28.3487H25.2776C27.4729 28.3487 29.2696 26.5628 29.2826 24.3675L29.3881 6.62619C29.408 3.29696 32.1329 0.588257 35.4623 0.588257H57.379C57.6353 0.588257 57.8823 0.683384 58.0724 0.855133L64.2847 6.46641C65.5574 7.61598 66.2873 9.25899 66.2873 10.974V27.3453H88.1497C88.4496 27.3453 88.7347 27.4753 88.9312 27.7018L95.4151 35.1742C96.3737 36.279 96.9016 37.6927 96.9016 39.1551V57.1403C96.9016 60.4896 94.1768 63.2145 90.8274 63.2145H72.3679C70.1594 63.2145 68.3629 65.011 68.3629 67.2195V84.1222C68.3628 87.4715 65.6379 90.1964 62.2887 90.1964ZM31.9907 83.024L38.3441 87.4165C39.0165 87.8816 39.804 88.1272 40.6217 88.1272H62.2887C64.4971 88.1272 66.2937 86.3307 66.2937 84.1222V67.2195C66.2937 63.8702 69.0186 61.1453 72.3678 61.1453H90.8274C93.0358 61.1453 94.8323 59.3488 94.8323 57.1403V39.1551C94.8323 38.1909 94.4843 37.2587 93.8522 36.5304L87.6777 29.4145H65.2528C64.6814 29.4145 64.2182 28.9512 64.2182 28.3799V10.974C64.2182 9.84326 63.7369 8.75983 62.8977 8.00179L56.981 2.65745H35.4624C33.267 2.65745 31.4705 4.44342 31.4574 6.63868L31.3518 24.38C31.332 27.7092 28.6071 30.4179 25.2776 30.4179H6.89763C4.68918 30.4179 2.8925 32.2145 2.8925 34.4229V55.127L7.75159 61.6164C8.50397 62.621 9.70252 63.2208 10.9576 63.2208H30.9563C31.5277 63.2208 31.9909 63.684 31.9909 64.2554V83.024H31.9907Z" fill="#1E1E24"/>
<path d="M35.4627 1.62286H57.3794V23.3404C57.3794 26.1237 59.6357 28.38 62.419 28.38H88.1501V49.4286C88.1501 52.2119 85.8938 54.4682 83.1105 54.4682H62.7535C59.9702 54.4682 57.7139 56.7245 57.7139 59.5078V78.527C57.7139 81.3103 55.4576 83.5665 52.6743 83.5665H30.9567V59.4317C30.9567 57.2446 29.1837 55.4716 26.9966 55.4716H1.8584V34.423C1.8584 31.6397 4.11467 29.3834 6.89797 29.3834H25.2782C28.0498 29.3834 30.3012 27.1453 30.3177 24.3738L30.4233 6.6325C30.4397 3.86091 32.6911 1.62286 35.4627 1.62286Z" fill="url(#paint1_linear_193_5242)"/>
<path d="M87.4281 28.38L84.9593 45.3923C84.9593 48.1756 82.703 50.4319 79.9197 50.4319H59.5626C56.7793 50.4319 54.523 52.6882 54.523 55.4715L54.8659 73.3843C54.8659 74.8109 54.7002 79.3024 54.1641 83.3424C56.2202 82.7072 57.7143 80.7917 57.7143 78.5269V59.5077C57.7143 56.7244 59.9707 54.4681 62.7539 54.4681H83.111C85.8943 54.4681 88.1505 52.2118 88.1505 49.4285V28.3799L87.4281 28.38Z" fill="#2CA8C4"/>
<g opacity="0.6">
<path d="M57.9014 25.5626L57.8369 26.1381C57.8369 28.9214 62.5253 31.1777 65.3085 31.1777H88.1505V28.3801H62.4194C60.4348 28.3801 58.7232 27.23 57.9014 25.5626Z" fill="white"/>
<path d="M55.5634 82.0613L37.9702 80.4556C35.6341 80.2424 33.8458 78.2835 33.8458 75.9377V62.2294C34.0584 57.4712 32.0728 52.2243 29.8857 52.2243H4.74752V37.2206C4.74752 34.4373 7.00379 32.181 9.78709 32.181H28.1672C30.9388 32.181 33.1902 29.9429 33.2067 27.1714L33.3123 9.43003C33.3288 6.6585 35.5802 4.42045 38.3517 4.42045H57.3794V1.62282H35.4627C32.6911 1.62282 30.4397 3.86086 30.4232 6.63239L30.3176 24.3737C30.3012 27.1452 28.0497 29.3834 25.2781 29.3834H6.89797C4.11467 29.3834 1.8584 31.6396 1.8584 34.4229V55.4716H26.9967C29.1838 55.4716 30.9568 57.2445 30.9568 59.4317V83.5665H52.6744C54.0614 83.5665 55.3171 83.0057 56.2284 82.099C56.0106 82.0759 55.789 82.0613 55.5634 82.0613Z" fill="white"/>
</g>
<path d="M52.6739 84.6012H30.9563C30.3849 84.6012 29.9216 84.1379 29.9216 83.5666V60.0212C29.9216 58.083 28.3448 56.5061 26.4067 56.5061H1.85785C1.2865 56.5061 0.823242 56.0429 0.823242 55.4715V34.423C0.823242 31.0737 3.54808 28.3488 6.89755 28.3488H25.2776C27.4729 28.3488 29.2694 26.5629 29.2825 24.3676L29.3881 6.62629C29.408 3.29707 32.1329 0.588379 35.4623 0.588379H57.379C57.9503 0.588379 58.4136 1.05162 58.4136 1.62297V23.3405C58.4136 25.5489 60.2101 27.3455 62.4186 27.3455H88.1497C88.721 27.3455 89.1843 27.8087 89.1843 28.3801V49.4287C89.1843 52.778 86.4594 55.5029 83.1101 55.5029H62.753C60.5445 55.5029 58.748 57.2994 58.748 59.5079V78.5271C58.748 81.8763 56.0232 84.6012 52.6739 84.6012ZM31.9908 82.532H52.6739C54.8823 82.532 56.6789 80.7355 56.6789 78.527V59.5078C56.6789 56.1585 59.4038 53.4336 62.753 53.4336H83.1102C85.3186 53.4336 87.1151 51.637 87.1151 49.4286V29.4145H62.4186C59.0694 29.4145 56.3445 26.6896 56.3445 23.3403V2.65743H35.4623C33.267 2.65743 31.4704 4.4434 31.4574 6.63866L31.3518 24.38C31.332 27.7092 28.6071 30.4179 25.2776 30.4179H6.89763C4.68918 30.4179 2.8925 32.2144 2.8925 34.4229V54.4368H26.4067C29.4859 54.4368 31.9909 56.9419 31.9909 60.0211V82.532H31.9908Z" fill="#1E1E24"/>
<defs>
<linearGradient id="paint0_linear_193_5242" x1="48.8629" y1="1.62286" x2="48.8629" y2="89.1618" gradientUnits="userSpaceOnUse">
<stop stop-color="#3ADEFF"/>
<stop offset="1" stop-color="#0087B7"/>
</linearGradient>
<linearGradient id="paint1_linear_193_5242" x1="45.0042" y1="1.62286" x2="45.0042" y2="83.5666" gradientUnits="userSpaceOnUse">
<stop stop-color="#3ADEFF"/>
<stop offset="1" stop-color="#0087B7"/>
</linearGradient>
</defs>
</svg>
